<?xml version="1.0"?>
<svg xmlns="http://www.w3.org/2000/svg" viewBox="0 0 198 198">
    <g class="lotos" transform="matrix(0.018130447862444003,0,0,-0.018130447862444003,-4186.476469979399,-2708.693571868146) " fill="#000000" id="#stamp">
      <path d="m236391.21875,-149665.390625c-27,-15 -55,-54 -127,-178c-195,-340 -406,-593 -691,-828c-198,-163 -336,-352 -442,-607c-60,-145 -84,-283 -84,-490c0,-164 3,-190 28,-289c15,-60 32,-116 36,-125c5,-9 19,-41 33,-71c29,-65 47,-83 79,-78c25,3 25,2 54,173c28,173 66,298 131,434c87,185 179,305 333,433c166,139 330,288 498,453c119,117 171,161 191,163c23,2 36,-8 82,-60c120,-138 321,-331 577,-552c114,-98 186,-177 255,-279c115,-169 205,-413 258,-699c12,-68 26,-83 62,-67c41,19 99,150 131,294c31,146 40,259 27,373c-12,108 -35,236 -51,282c-106,315 -250,525 -504,734c-108,89 -312,295 -389,392c-71,91 -250,360 -293,442c-70,134 -133,182 -194,150z" id="svg_5" stroke="null"/>
      <path d="m233463.21875,-150820.390625c-31,-12 -41,-57 -30,-128c12,-71 1,-197 -24,-275c-16,-51 -87,-240 -103,-275c-24,-51 -77,-188 -86,-220c-30,-108 -41,-163 -54,-261c-12,-97 -12,-128 0,-225c18,-143 28,-188 65,-284c69,-182 248,-437 295,-419c23,9 26,36 15,150c-25,269 -1,506 72,694c42,110 48,121 140,254c9,14 68,-8 134,-50c29,-19 57,-34 61,-34c12,0 173,-128 217,-173c238,-240 386,-605 386,-956c0,-58 4,-111 8,-116c4,-6 33,-30 65,-54c223,-165 337,-381 337,-635c0,-101 13,-146 42,-146c47,0 121,114 169,260c22,69 24,89 23,265c0,148 -4,204 -18,255c-10,36 -21,81 -25,100c-21,90 -128,366 -153,394c-4,6 -8,32 -8,59c0,49 -3,69 -39,282c-26,155 -91,389 -114,412c-4,3 -7,12 -7,20c0,24 -102,225 -158,312c-228,354 -563,611 -967,743c-165,54 -211,64 -243,51z" id="svg_6" stroke="null"/>
      <path d="m239296.21875,-150828.390625c-170,-43 -391,-138 -545,-235c-295,-185 -512,-427 -664,-742c-31,-64 -56,-121 -56,-127c0,-6 -4,-19 -10,-29c-27,-47 -94,-293 -110,-402c-5,-36 -17,-110 -25,-164c-8,-55 -15,-114 -15,-131c0,-18 -6,-45 -14,-61c-161,-329 -228,-663 -181,-909c18,-94 29,-128 72,-216c51,-107 117,-158 143,-110c5,11 10,62 10,115c0,143 36,277 108,400c44,76 162,198 241,251l60,40l1,109c0,106 4,141 37,306c33,165 107,343 206,490c65,96 232,264 322,322c84,55 202,118 220,118c7,0 28,-21 47,-47c86,-123 139,-263 174,-458c17,-95 20,-413 4,-494c-13,-70 -13,-77 5,-94c24,-24 52,-9 104,57c122,154 211,332 244,487c24,111 37,201 37,251c0,62 -27,242 -46,308c-8,30 -18,64 -21,75c-2,11 -8,29 -13,40c-6,16 -96,240 -140,350c-44,108 -54,168 -56,325c-2,146 -3,155 -24,172c-25,20 -44,21 -115,3z" id="svg_7" stroke="null"/>
      <path class="lotos-center" d="m236099.21875,-151870.390625c-21,-24 -28,-53 -38,-158c-9,-89 -33,-266 -43,-315c-3,-14 -10,-52 -17,-85c-6,-33 -15,-76 -20,-95c-5,-19 -17,-66 -26,-105c-18,-75 -97,-324 -115,-365c-6,-14 -15,-33 -20,-42c-5,-10 -9,-23 -9,-29c0,-7 -36,-85 -79,-173c-80,-162 -233,-424 -437,-746c-98,-155 -234,-379 -272,-450c-59,-109 -182,-362 -182,-375c0,-3 -9,-24 -19,-48c-17,-35 -63,-172 -100,-292c-5,-16 -17,-68 -25,-115c-9,-47 -20,-107 -26,-135c-12,-67 -30,-284 -30,-365c1,-184 50,-470 107,-625c69,-184 146,-308 272,-438c240,-248 574,-382 946,-382c176,0 262,14 403,62c258,87 443,246 546,468c68,145 87,224 107,432c11,117 11,148 -5,268c-16,126 -25,169 -46,220c-4,11 -14,36 -21,55c-21,60 -95,166 -157,227c-70,69 -144,115 -244,150c-65,24 -88,26 -218,27c-149,1 -199,-9 -305,-61c-97,-49 -191,-149 -225,-241c-33,-89 -14,-124 50,-93c97,46 166,52 242,18c63,-28 111,-80 146,-156c22,-49 26,-70 26,-172c1,-83 -3,-124 -14,-145c-55,-110 -121,-160 -249,-189c-125,-29 -226,2 -329,99c-69,64 -105,137 -142,281c-21,83 -32,409 -21,584c15,216 31,309 90,501c43,142 130,340 204,465c13,22 35,61 50,87c14,25 37,64 51,87c14,22 26,42 26,44c0,2 24,44 54,93c56,94 156,283 156,296c0,8 34,88 51,120c14,27 50,159 89,323c15,60 40,338 40,437c0,98 -24,396 -40,503c-15,95 -30,181 -41,235c-5,25 -16,81 -24,125c-23,118 -38,164 -58,186c-22,24 -39,24 -59,2z" id="svg_8" stroke="null"/>
      <path class="lotos-center" d="m236839.21875,-152655.390625c-20,-31 -51,-100 -81,-183c-19,-54 -53,-211 -68,-316c-15,-110 -4,-278 30,-439c15,-71 52,-192 63,-205c4,-5 8,-16 8,-24c0,-7 29,-73 65,-145c67,-137 150,-264 300,-462c175,-232 359,-518 430,-670c65,-139 72,-158 90,-219c17,-64 18,-190 0,-190c-5,0 -22,24 -37,53c-167,329 -472,522 -829,522c-67,0 -101,-4 -115,-14c-29,-22 -10,-43 98,-106c226,-131 383,-315 473,-555c22,-57 39,-123 64,-243c16,-80 14,-401 -4,-497c-27,-145 -46,-221 -66,-272c-5,-13 -13,-33 -17,-45c-25,-65 -80,-173 -128,-249c-74,-119 -71,-159 12,-159c42,0 256,79 333,122c20,12 56,32 81,46c86,47 176,117 273,211c227,220 331,430 396,797c14,78 14,367 0,453c-33,207 -53,283 -122,456c-95,242 -252,489 -576,905c-60,78 -153,201 -171,227c-8,12 -45,63 -81,115c-244,347 -357,663 -359,1001c0,99 -28,137 -62,85z" id="svg_9" stroke="null"/>
      <path d="m232292.21875,-152684.390625c-19,-18 -22,-28 -16,-57c4,-20 15,-48 24,-62c46,-65 92,-165 171,-365c14,-36 28,-79 45,-140c9,-33 21,-71 25,-85c22,-69 61,-262 90,-445c18,-115 40,-383 40,-485c0,-104 16,-337 30,-440c33,-236 46,-311 71,-412c36,-149 68,-262 89,-313c5,-11 16,-45 26,-75c9,-30 30,-83 45,-118c16,-34 29,-65 29,-69c0,-3 27,-60 60,-126c125,-246 263,-439 449,-625c221,-222 479,-382 766,-473c173,-56 229,-69 293,-69c49,0 52,2 52,25c0,26 2,25 -175,156c-157,117 -222,174 -375,329c-241,243 -365,431 -451,681c-32,91 -33,99 -33,264c-1,209 16,274 89,345c33,32 41,35 98,35c47,0 76,-7 120,-28c65,-31 89,-33 107,-12c16,19 6,87 -27,178c-97,270 -290,427 -526,427c-32,0 -39,4 -48,28c-30,78 -30,658 0,734l10,28l49,-19c269,-106 505,-297 717,-580c59,-77 88,-99 111,-80c11,9 14,23 9,53c-10,61 -71,266 -105,351c-4,11 -14,36 -21,55c-43,117 -151,331 -232,460c-175,279 -393,498 -662,667c-71,44 -111,65 -280,143c-52,24 -222,78 -305,96c-233,52 -322,57 -359,23z" id="svg_10" stroke="null"/>
      <path d="m240371.21875,-152704.390625c-30,-5 -73,-13 -95,-18c-22,-6 -70,-17 -107,-26c-67,-16 -176,-49 -213,-64c-312,-132 -488,-247 -688,-447c-196,-195 -331,-390 -467,-672c-22,-45 -40,-86 -40,-90c0,-5 -9,-26 -19,-48c-40,-83 -134,-383 -146,-466c-6,-40 -4,-49 10,-54c21,-8 68,39 140,141c75,105 279,304 395,384c118,81 271,159 320,163l35,3l-3,-155c-4,-220 -23,-436 -52,-580c-16,-81 -41,-184 -51,-215c-22,-63 -80,-171 -110,-209c-36,-43 -118,-86 -165,-86c-56,0 -130,29 -202,80c-78,55 -92,59 -118,33c-14,-14 -16,-29 -10,-94c14,-173 93,-316 231,-419c54,-40 192,-110 217,-110c9,0 32,-7 52,-15c29,-12 35,-20 32,-38c-33,-170 -52,-229 -118,-362c-148,-296 -440,-607 -839,-893c-90,-64 -105,-82 -86,-101c14,-14 94,-14 154,1c500,120 878,373 1188,793c102,138 224,354 290,515c15,36 33,79 40,95c15,32 72,200 85,250c32,114 62,237 69,275c50,262 67,413 81,715c6,127 15,263 20,303c6,40 10,92 10,114c0,44 22,196 45,313c25,125 55,259 64,285c5,14 17,52 26,85c46,158 157,413 216,497c31,43 35,82 10,107c-17,17 -32,21 -83,20c-35,-1 -88,-5 -118,-10z" id="svg_11" stroke="null"/>
      <path d="m231013.21875,-154083.390625c-16,-15 -22,-29 -18,-44c3,-11 43,-84 89,-161c141,-236 272,-489 338,-657c11,-28 28,-70 38,-92c10,-23 24,-57 30,-76c7,-19 17,-44 21,-55c14,-34 58,-158 71,-200c6,-22 15,-49 19,-60c5,-11 16,-47 25,-80c9,-33 20,-71 25,-85c4,-14 12,-43 18,-65c18,-66 65,-219 73,-235c3,-8 11,-26 16,-40c54,-140 173,-335 295,-483c173,-210 463,-430 733,-556c107,-51 172,-79 230,-100c33,-13 69,-27 80,-31c96,-39 443,-130 495,-130c23,0 26,-23 9,-85c-33,-123 -151,-294 -280,-405c-130,-112 -345,-240 -519,-310c-30,-12 -66,-27 -80,-32c-14,-6 -34,-14 -45,-19c-11,-4 -48,-17 -82,-28c-83,-26 -100,-37 -118,-71c-12,-23 -13,-34 -3,-55c15,-33 111,-100 213,-149c112,-54 109,-53 220,-83c91,-25 116,-27 280,-27c151,0 197,4 283,23c95,20 109,21 180,9c120,-19 401,-16 487,6c172,44 295,122 380,242c75,105 135,277 135,390c0,99 -39,99 -143,-1c-91,-88 -159,-138 -242,-182c-176,-92 -355,-121 -540,-88c-84,15 -204,50 -218,64c-4,4 17,41 48,82c82,110 149,247 203,419c26,83 41,293 26,367c-5,27 -22,38 -169,111c-90,45 -199,103 -242,130c-628,382 -1072,913 -1247,1492c-14,47 -30,99 -35,115c-5,17 -17,73 -26,125c-9,52 -20,119 -26,149c-5,30 -9,72 -9,93c0,31 4,38 19,38c30,0 153,-47 226,-86c79,-41 116,-44 135,-9c15,27 8,58 -37,165c-37,87 -44,99 -111,204c-113,176 -277,318 -476,411c-206,96 -388,140 -666,161c-79,6 -87,4 -108,-16z" id="svg_12" stroke="null"/>
      <path d="m241656.21875,-154073.390625c-16,-4 -49,-8 -72,-9c-24,0 -62,-5 -85,-11c-24,-5 -77,-17 -118,-25c-231,-50 -465,-169 -628,-320c-121,-111 -253,-324 -307,-492c-16,-49 -16,-55 -1,-78c22,-34 53,-32 131,9c73,39 196,86 226,86c24,0 25,-30 4,-161c-43,-276 -96,-451 -207,-679c-123,-252 -268,-452 -492,-675c-163,-162 -242,-233 -357,-315c-97,-69 -229,-160 -234,-160c-3,0 -28,-15 -57,-34c-29,-18 -127,-71 -218,-116c-91,-45 -168,-88 -172,-94c-13,-20 -8,-219 7,-301c21,-112 49,-195 101,-304c43,-89 113,-200 157,-249c26,-28 19,-36 -63,-62c-199,-64 -361,-65 -550,-3c-140,46 -282,137 -400,257c-87,89 -128,71 -116,-52c14,-137 71,-285 143,-372c96,-117 206,-184 368,-226c85,-22 367,-25 487,-6c71,12 85,11 180,-9c86,-19 132,-23 283,-23c164,0 189,2 280,27c111,30 109,29 218,81c86,42 173,97 200,128c24,28 22,74 -6,102c-13,13 -54,33 -93,45c-38,12 -78,25 -89,30c-11,5 -31,13 -45,18c-209,85 -297,130 -445,228c-214,142 -375,330 -424,495c-7,25 -17,56 -23,69c-5,13 -5,27 -1,31c4,4 40,13 78,20c39,7 104,22 145,32c41,11 91,23 110,28c36,8 149,45 185,60c11,4 52,20 90,35c603,227 1069,660 1259,1165c15,41 31,84 36,95c5,11 20,67 35,125c15,58 35,130 45,160c10,30 30,93 45,140c29,94 87,252 116,317c10,24 19,45 19,48c0,4 9,27 21,53c12,26 28,63 36,82c40,92 186,385 227,454c25,43 46,79 46,81c0,3 29,50 65,107c36,56 65,109 65,118c0,9 -10,26 -23,38c-19,18 -34,22 -88,21c-35,-1 -77,-5 -94,-9z" id="svg_13" stroke="null"/>
      <path d="m237071.21875,-157308.390625c-176,-30 -281,-78 -380,-175c-74,-72 -107,-123 -146,-226c-22,-58 -26,-87 -28,-179c-1,-95 2,-118 23,-170c14,-33 35,-76 47,-95c39,-63 125,-134 217,-179c128,-62 164,-46 133,60c-9,29 -16,86 -16,127c0,127 66,233 185,295c61,31 187,36 249,8c68,-30 120,-74 170,-145c71,-102 103,-188 126,-343c28,-186 -43,-405 -171,-532c-63,-62 -121,-97 -340,-205c-223,-109 -252,-126 -351,-200c-92,-68 -159,-137 -243,-251c-95,-128 -119,-132 -187,-32c-23,34 -58,82 -77,106c-56,68 -209,190 -328,260c-416,245 -470,282 -543,376c-111,144 -154,260 -154,415c0,109 14,171 56,257c22,45 27,46 98,23c105,-34 283,-60 418,-60c149,0 262,22 354,69c144,74 140,128 -12,161c-364,79 -560,257 -560,508l0,83l-37,-6c-143,-22 -234,-47 -329,-90c-344,-157 -532,-494 -534,-955c0,-286 99,-520 315,-736c145,-145 320,-258 535,-344c30,-12 64,-26 75,-30c337,-137 565,-300 709,-507c31,-45 62,-83 69,-86c28,-9 65,16 90,61c104,191 369,387 703,521c324,131 492,236 659,412c138,146 220,297 271,504c27,106 16,448 -17,533c-5,13 -9,32 -9,42c0,49 -67,215 -123,305c-49,79 -139,183 -201,230c-66,51 -118,81 -256,145c-17,8 -121,34 -198,49c-68,14 -166,12 -262,-4z" id="svg_14" stroke="null"/>
    </g>
</svg>
